<?xml version="1.0" encoding="UTF-8" standalone="no"?>
<!DOCTYPE svg PUBLIC "-//W3C//DTD SVG 1.1//EN"
 "http://www.w3.org/Graphics/SVG/1.1/DTD/svg11.dtd">
<!-- Generated by graphviz version 2.38.0 (20140413.2041)
 -->
<!-- Title: %3 Pages: 1 -->
<svg width="629pt" height="254pt"
 viewBox="0.00 0.00 628.82 254.00" xmlns="http://www.w3.org/2000/svg" xmlns:xlink="http://www.w3.org/1999/xlink">
<g id="graph0" class="graph" transform="scale(1 1) rotate(0) translate(4 250)">
<title>%3</title>
<polygon fill="white" stroke="none" points="-4,4 -4,-250 624.824,-250 624.824,4 -4,4"/>
<g id="clust1" class="cluster"><title>cluster_UI</title>
<polygon fill="none" stroke="black" points="8,-91 8,-238 416,-238 416,-91 8,-91"/>
<text text-anchor="middle" x="212" y="-222.8" font-family="Times,serif" font-size="14.00">UI</text>
</g>
<g id="clust2" class="cluster"><title>cluster_Client</title>
<polygon fill="none" stroke="black" points="232,-8 232,-83 560,-83 560,-8 232,-8"/>
<text text-anchor="middle" x="396" y="-67.8" font-family="Times,serif" font-size="14.00">Client</text>
</g>
<g id="clust3" class="cluster"><title>cluster_Server</title>
<polygon fill="none" stroke="black" points="453,-91 453,-238 611,-238 611,-91 453,-91"/>
<text text-anchor="middle" x="532" y="-222.8" font-family="Times,serif" font-size="14.00">Server</text>
</g>
<!-- UIThread_Connection -->
<g id="node1" class="node"><title>UIThread_Connection</title>
<ellipse fill="none" stroke="black" cx="106" cy="-189" rx="89.8845" ry="18"/>
<text text-anchor="middle" x="106" y="-185.3" font-family="Times,serif" font-size="14.00">UIThread_Connection</text>
</g>
<!-- Client_Creation -->
<g id="node2" class="node"><title>Client_Creation</title>
<ellipse fill="none" stroke="black" cx="106" cy="-117" rx="66.8882" ry="18"/>
<text text-anchor="middle" x="106" y="-113.3" font-family="Times,serif" font-size="14.00">Client_Creation</text>
</g>
<!-- UIThread_Connection&#45;&gt;Client_Creation -->
<g id="edge1" class="edge"><title>UIThread_Connection&#45;&gt;Client_Creation</title>
<path fill="none" stroke="black" d="M106,-170.697C106,-162.983 106,-153.712 106,-145.112"/>
<polygon fill="black" stroke="black" points="109.5,-145.104 106,-135.104 102.5,-145.104 109.5,-145.104"/>
</g>
<!-- Client_Connection -->
<g id="node5" class="node"><title>Client_Connection</title>
<ellipse fill="none" stroke="black" cx="317" cy="-34" rx="77.1866" ry="18"/>
<text text-anchor="middle" x="317" y="-30.3" font-family="Times,serif" font-size="14.00">Client_Connection</text>
</g>
<!-- Client_Creation&#45;&gt;Client_Connection -->
<g id="edge3" class="edge"><title>Client_Creation&#45;&gt;Client_Connection</title>
<path fill="none" stroke="black" d="M142.753,-101.891C177.802,-88.4361 230.781,-68.0982 269.118,-53.3812"/>
<polygon fill="black" stroke="black" points="270.448,-56.6198 278.529,-49.7683 267.939,-50.0848 270.448,-56.6198"/>
</g>
<!-- UIThread_Event_Queue -->
<g id="node3" class="node"><title>UIThread_Event_Queue</title>
<ellipse fill="none" stroke="black" cx="311" cy="-189" rx="96.6831" ry="18"/>
<text text-anchor="middle" x="311" y="-185.3" font-family="Times,serif" font-size="14.00">UIThread_Event_Queue</text>
</g>
<!-- UIThread_Event_Handling -->
<g id="node4" class="node"><title>UIThread_Event_Handling</title>
<ellipse fill="none" stroke="black" cx="298" cy="-117" rx="106.681" ry="18"/>
<text text-anchor="middle" x="298" y="-113.3" font-family="Times,serif" font-size="14.00">UIThread_Event_Handling</text>
</g>
<!-- UIThread_Event_Queue&#45;&gt;UIThread_Event_Handling -->
<g id="edge2" class="edge"><title>UIThread_Event_Queue&#45;&gt;UIThread_Event_Handling</title>
<path fill="none" stroke="black" d="M307.787,-170.697C306.354,-162.983 304.632,-153.712 303.035,-145.112"/>
<polygon fill="black" stroke="black" points="306.444,-144.297 301.177,-135.104 299.561,-145.575 306.444,-144.297"/>
</g>
<!-- Server_Handling -->
<g id="node7" class="node"><title>Server_Handling</title>
<ellipse fill="none" stroke="black" cx="532" cy="-189" rx="70.6878" ry="18"/>
<text text-anchor="middle" x="532" y="-185.3" font-family="Times,serif" font-size="14.00">Server_Handling</text>
</g>
<!-- Client_Connection&#45;&gt;Server_Handling -->
<g id="edge5" class="edge"><title>Client_Connection&#45;&gt;Server_Handling</title>
<path fill="none" stroke="black" d="M339.419,-51.4117C356.057,-62.5847 379.788,-76.4842 403,-83 414.187,-86.1403 603.942,-82.628 612,-91 625.561,-105.09 621.252,-117.772 612,-135 604.37,-149.207 591.072,-160.248 577.484,-168.486"/>
<polygon fill="black" stroke="black" points="575.57,-165.547 568.569,-173.499 579.001,-171.648 575.57,-165.547"/>
</g>
<!-- Client_Handling -->
<g id="node6" class="node"><title>Client_Handling</title>
<ellipse fill="none" stroke="black" cx="482" cy="-34" rx="69.5877" ry="18"/>
<text text-anchor="middle" x="482" y="-30.3" font-family="Times,serif" font-size="14.00">Client_Handling</text>
</g>
<!-- Client_Handling&#45;&gt;UIThread_Event_Queue -->
<g id="edge4" class="edge"><title>Client_Handling&#45;&gt;UIThread_Event_Queue</title>
<path fill="none" stroke="black" d="M471.826,-52.0627C456.641,-77.1371 428.308,-122.339 414,-135 398.546,-148.676 378.932,-159.903 360.977,-168.448"/>
<polygon fill="black" stroke="black" points="359.399,-165.321 351.769,-172.671 362.317,-171.684 359.399,-165.321"/>
</g>
<!-- Server_Response -->
<g id="node8" class="node"><title>Server_Response</title>
<ellipse fill="none" stroke="black" cx="532" cy="-117" rx="71.4873" ry="18"/>
<text text-anchor="middle" x="532" y="-113.3" font-family="Times,serif" font-size="14.00">Server_Response</text>
</g>
<!-- Server_Handling&#45;&gt;Server_Response -->
<g id="edge6" class="edge"><title>Server_Handling&#45;&gt;Server_Response</title>
<path fill="none" stroke="black" d="M532,-170.697C532,-162.983 532,-153.712 532,-145.112"/>
<polygon fill="black" stroke="black" points="535.5,-145.104 532,-135.104 528.5,-145.104 535.5,-145.104"/>
</g>
<!-- Server_Response&#45;&gt;Client_Handling -->
<g id="edge7" class="edge"><title>Server_Response&#45;&gt;Client_Handling</title>
<path fill="none" stroke="black" d="M521.396,-98.822C514.522,-87.686 505.445,-72.9815 497.737,-60.4939"/>
<polygon fill="black" stroke="black" points="500.648,-58.5464 492.417,-51.8755 494.691,-62.2233 500.648,-58.5464"/>
</g>
</g>
</svg>
